<svg xmlns="http://www.w3.org/2000/svg" version="1.1" width="24px" height="24px" style="shape-rendering:geometricPrecision; text-rendering:geometricPrecision; image-rendering:optimizeQuality; fill-rule:evenodd; clip-rule:evenodd" xmlns:xlink="http://www.w3.org/1999/xlink">
<g><path style="opacity:0.545" fill="#fefffe" d="M 7.5,1.5 C 17.9884,0.487361 22.4884,5.15403 21,15.5C 18.0812,21.0248 13.5812,22.8581 7.5,21C 1.97524,18.0812 0.141911,13.5812 2,7.5C 3.35968,4.97739 5.19301,2.97739 7.5,1.5 Z M 15.5,12.5 C 14.423,9.62157 12.7564,7.12157 10.5,5C 17.1075,4.66408 19.6075,7.83074 18,14.5C 17.5831,13.244 16.7498,12.5774 15.5,12.5 Z M 12.5,15.5 C 12.5774,16.7498 13.244,17.5831 14.5,18C 7.83074,19.6075 4.66408,17.1075 5,10.5C 7.12157,12.7564 9.62157,14.423 12.5,15.5 Z"/></g>
</svg>
